<svg width="21" height="43" viewBox="0 0 21 43" fill="none" xmlns="http://www.w3.org/2000/svg">
<path d="M17.5156 42.0113C17.0674 42.0128 16.6244 41.9139 16.2194 41.7218C15.8144 41.5297 15.4576 41.2492 15.1752 40.9011L0.682587 22.8979C0.241262 22.361 0 21.6875 0 20.9925C0 20.2975 0.241262 19.6241 0.682587 19.0872L15.6853 1.08395C16.1946 0.471192 16.9265 0.0858491 17.7199 0.0126968C18.5133 -0.0604556 19.3033 0.184574 19.916 0.693882C20.5288 1.20319 20.9142 1.93506 20.9873 2.72848C21.0605 3.5219 20.8154 4.31188 20.3061 4.92464L6.8937 21.0075L19.856 37.0904C20.223 37.5309 20.456 38.0672 20.5277 38.6359C20.5993 39.2047 20.5066 39.7821 20.2603 40.2997C20.0141 40.8174 19.6248 41.2537 19.1384 41.5571C18.652 41.8604 18.0888 42.018 17.5156 42.0113Z" fill="#2E27D4"/>
</svg>
