<svg width="375" height="651" viewBox="0 0 375 651" fill="none" xmlns="http://www.w3.org/2000/svg">
<g style="mix-blend-mode:darken">
<mask id="path-1-inside-1_19_18" fill="white">
<path d="M375 458.198C375 260.897 29.1697 214.464 0 0V650.991H375V458.198Z"/>
</mask>
<path d="M0 0L990.877 -134.771L-1000 0H0ZM375 650.991V1650.99H1375V650.991H375ZM0 650.991H-1000V1650.99H0V650.991ZM-990.877 134.771C-945.809 466.123 -777.542 696.102 -646.353 831.138C-582.752 896.605 -521.588 946.525 -477.73 980.217C-435.309 1012.81 -393.775 1041.64 -375.061 1054.74C-349.229 1072.83 -347.181 1074.53 -349.074 1073.06C-351.926 1070.85 -378.595 1050.3 -412.698 1013.53C-447.753 975.736 -502.129 908.639 -547.556 810.41C-595.494 706.754 -625 586.369 -625 458.198H1375C1375 78.2207 1196.02 -193.039 1053.71 -346.479C986.734 -418.699 921.556 -472.468 877.152 -506.93C833.706 -540.648 791.158 -570.216 771.939 -583.67C708.827 -627.853 746.269 -605.6 788.153 -562.488C846.294 -502.641 960.394 -358.891 990.877 -134.771L-990.877 134.771ZM-625 458.198V650.991H1375V458.198H-625ZM375 -349.009H0V1650.99H375V-349.009ZM1000 650.991V0H-1000V650.991H1000Z" fill="#3E92CC" mask="url(#path-1-inside-1_19_18)"/>
</g>
</svg>
