<svg width="40" height="40" viewBox="0 0 40 40" fill="none" xmlns="http://www.w3.org/2000/svg">
<circle cx="20" cy="20" r="20" fill="#070807"/>
<path d="M32.3683 16.3625L31.0558 10.9C30.7808 9.775 29.8058 9 28.6683 9H11.3058C10.1808 9 9.19329 9.7875 8.93079 10.9L7.61829 16.3625C7.31829 17.6375 7.59329 18.9375 8.39329 19.9625C8.49329 20.1 8.63079 20.2 8.74329 20.325V29C8.74329 30.375 9.86829 31.5 11.2433 31.5H28.7433C30.1183 31.5 31.2433 30.375 31.2433 29V20.325C31.3558 20.2125 31.4933 20.1 31.5933 19.975C32.3933 18.95 32.6808 17.6375 32.3683 16.3625ZM28.6308 11.4875L29.9433 16.95C30.0683 17.475 29.9558 18 29.6308 18.4125C29.4558 18.6375 29.0808 19 28.4558 19C27.6933 19 27.0308 18.3875 26.9433 17.575L26.2183 11.5L28.6308 11.4875ZM21.2433 11.5H23.6933L24.3683 17.15C24.4308 17.6375 24.2808 18.125 23.9558 18.4875C23.6808 18.8125 23.2808 19 22.7683 19C21.9308 19 21.2433 18.2625 21.2433 17.3625V11.5ZM15.6058 17.15L16.2933 11.5H18.7433V17.3625C18.7433 18.2625 18.0558 19 17.1308 19C16.7058 19 16.3183 18.8125 16.0183 18.4875C15.7058 18.125 15.5558 17.6375 15.6058 17.15ZM10.0433 16.95L11.3058 11.5H13.7683L13.0433 17.575C12.9433 18.3875 12.2933 19 11.5308 19C10.9183 19 10.5308 18.6375 10.3683 18.4125C10.0308 18.0125 9.91829 17.475 10.0433 16.95ZM11.2433 29V21.4625C11.3433 21.475 11.4308 21.5 11.5308 21.5C12.6183 21.5 13.6058 21.05 14.3308 20.3125C15.0808 21.0625 16.0808 21.5 17.2183 21.5C18.3058 21.5 19.2808 21.05 20.0058 20.3375C20.7433 21.05 21.7433 21.5 22.8683 21.5C23.9183 21.5 24.9183 21.0625 25.6683 20.3125C26.3933 21.05 27.3808 21.5 28.4683 21.5C28.5683 21.5 28.6558 21.475 28.7558 21.4625V29H11.2433Z" fill="white"/>
</svg>
