<svg width="70" height="70" viewBox="0 0 70 70" fill="none" xmlns="http://www.w3.org/2000/svg">
<path d="M38.5217 15.1369C38.2155 15.0815 36.7368 14.8335 35.0015 14.8335C33.2661 14.8335 31.7874 15.0815 31.4812 15.1369C31.3062 15.166 31.2362 14.9969 31.3704 14.8948C31.4929 14.8073 35.0015 12.1357 35.0015 12.1357L38.6296 14.8948C38.7667 14.9969 38.6996 15.169 38.5217 15.1369ZM32.4611 32.4757C32.4611 32.4757 32.2745 32.5428 32.2278 32.7061C32.9628 33.269 33.4674 34.5552 35.0015 34.5552C36.5356 34.5552 37.043 33.2719 37.7751 32.7032C37.7284 32.5399 37.5418 32.4757 37.5418 32.4757C37.5418 32.4757 36.5793 32.7003 35.0015 32.7003C33.4207 32.7003 32.4611 32.4757 32.4611 32.4757ZM35.0015 30.3117C34.5756 30.3117 34.4823 30.1512 34.1907 30.1512C33.9165 30.1512 33.3769 30.3729 33.2603 30.5771C33.2678 30.6808 33.3111 30.7787 33.3828 30.8541C34.0011 30.9445 34.284 31.2916 35.0015 31.2916C35.7218 31.2916 36.0018 30.9445 36.6231 30.8541C36.6929 30.7778 36.735 30.6802 36.7426 30.5771C36.626 30.3729 36.0893 30.1542 35.8123 30.1512C35.5206 30.1512 35.4273 30.3117 35.0015 30.3117ZM69.9621 36.9322C69.9179 37.7639 69.844 38.5937 69.7404 39.42C65.7739 40.0762 64.3594 36.5443 60.2996 36.7222C60.5416 37.5826 60.7371 38.4605 60.8916 39.3559C64.2398 39.3559 65.5873 42.4853 69.3146 42.0245C69.1192 42.9811 68.883 43.9261 68.6088 44.8535C65.6631 45.1452 64.6277 42.217 61.2183 42.2987C61.2474 42.7828 61.262 43.2728 61.262 43.7686L61.2474 44.5852L67.868 47.111C67.5216 48.0486 67.1353 48.9711 66.7101 49.8758C64.7211 49.7679 64.0357 47.2159 61.0083 47.4172C60.9176 48.0677 60.8028 48.7147 60.6641 49.3567C63.2919 49.173 63.8578 51.5937 65.7389 51.7891C65.2596 52.6629 64.7439 53.5163 64.1932 54.3469C63.079 53.749 62.1107 51.9466 59.9933 51.8358C60.2126 51.1636 60.4033 50.4825 60.565 49.7942C58.6867 49.7942 56.5401 49.065 54.7435 47.4259C55.3269 44.1011 50.1704 40.7208 50.1704 38.2884C50.1704 35.646 51.5062 34.1848 51.5062 30.6237C51.5062 27.9784 50.2229 25.1115 48.2863 23.1515C47.9264 22.7842 47.524 22.4611 47.0876 22.1891C48.8667 24.3881 50.2317 26.9985 50.2317 30.02C50.2317 33.374 48.6713 35.1444 48.6713 38.2417C48.6713 41.3362 53.2007 44.0165 53.2007 47.2072C53.2007 48.4613 52.7982 49.6863 51.4741 52.0982C53.5069 54.1282 56.1552 55.2364 57.8613 55.2364C58.4155 55.2364 58.7159 55.0673 58.9142 54.6327C59.0854 54.2565 59.2478 53.8762 59.4013 53.4924C61.2387 53.5624 62.0845 55.2335 63.1024 55.9014C62.5424 56.6539 61.9562 57.3772 61.3408 58.0772C60.6583 57.3218 59.7396 56.0502 58.3951 55.6973C58.1558 56.1644 57.903 56.6245 57.6368 57.0768C58.7917 57.3918 59.5821 58.5584 60.1946 59.3254C59.534 60.0101 58.8461 60.6678 58.1326 61.297C57.6863 60.6 56.9893 59.7192 56.2077 59.2438C55.9205 59.6317 55.6219 60.011 55.3123 60.3812C55.9743 60.8333 56.5606 61.6412 56.9426 62.3003C56.1172 62.9624 55.2627 63.5924 54.3761 64.1815C53.9386 60.6233 49.0855 58.188 50.395 54.0611C49.9663 54.7902 49.4529 55.6973 49.4529 56.7939C49.4529 59.7804 52.632 62.1487 52.8886 65.1177C52.2295 65.5114 51.5529 65.8818 50.8675 66.2347C50.7508 62.9711 47.3851 59.4013 47.3851 56.7268C47.3851 53.7373 51.2991 50.7333 51.2991 47.2072C51.2991 43.6782 46.7814 41.2312 46.7814 38.1338C46.7814 35.0365 48.7034 33.2544 48.7034 29.2821C48.7034 26.3743 47.3209 23.4315 45.186 21.5533C44.824 21.2261 44.4223 20.9459 43.9902 20.7191C46.0027 23.134 47.1693 25.3273 47.1693 28.6492C47.1693 32.3824 44.9673 34.4531 44.9673 38.1105C44.9673 41.7678 49.4004 43.7978 49.4004 47.2101C49.4004 50.6166 45.2735 53.4865 45.2735 56.9893C45.2735 60.1742 48.9105 63.3532 48.9659 67.1301C48.1684 67.4777 47.358 67.7949 46.5364 68.0809C47.0001 64.2632 42.9053 60.3258 42.9053 57.2109C42.9053 53.8073 47.1839 50.8791 47.1839 47.2072C47.1839 43.5323 42.8353 41.8262 42.8353 38.0551C42.8353 34.2869 45.5039 32.2016 45.5039 28.0367C45.4953 26.4955 45.1357 24.9764 44.4525 23.5948C43.7692 22.2132 42.7803 21.0054 41.5608 20.0629L41.412 19.9521C41.1904 19.7888 41.0095 19.9842 41.167 20.1796C42.8236 22.2503 43.7103 24.3415 43.7103 27.4418C43.7103 31.2479 40.6421 34.3423 40.6421 38.0347C40.6421 42.3891 44.7602 43.6344 44.7602 47.2072C44.7602 50.78 40.3446 53.6382 40.3446 57.4297C40.3446 60.947 44.524 64.8523 43.8065 68.9121C42.9643 69.1313 42.114 69.3181 41.2575 69.4721C42.042 64.4177 37.9413 60.7866 37.9413 57.4793C37.9413 53.8978 42.5145 50.7071 42.5145 47.2072C42.5145 43.9086 39.2334 42.8295 38.8017 39.4521C38.7434 38.9913 38.373 38.6501 37.8626 38.7346C37.1947 38.8571 36.3402 39.2946 34.9985 39.2946C33.6569 39.2946 32.8024 38.8571 32.1345 38.7346C31.627 38.6501 31.2566 38.9913 31.1983 39.4521C30.7666 42.8295 27.4826 43.9057 27.4826 47.2101C27.4826 50.7071 32.0557 53.8978 32.0557 57.4764C32.0557 60.7866 27.958 64.4177 28.7396 69.4721C27.8833 69.3169 27.0331 69.1301 26.1906 68.9121C25.4731 64.8523 29.6525 60.95 29.6525 57.4297C29.6525 53.6382 25.2369 50.78 25.2369 47.2072C25.2369 43.6344 29.355 42.3891 29.355 38.0347C29.355 34.3423 26.2868 31.2508 26.2868 27.4389C26.2868 24.3415 27.1735 22.2474 28.833 20.1767C28.9875 19.9842 28.8067 19.7888 28.5851 19.9521L28.4392 20.0629C27.2203 21.0045 26.232 22.2114 25.5492 23.592C24.8665 24.9727 24.5073 26.4907 24.499 28.0309C24.499 32.1957 27.1676 34.2811 27.1676 38.0522C27.1676 41.8203 22.8161 43.5294 22.8161 47.2043C22.8161 50.8733 27.0947 53.8015 27.0947 57.208C27.0947 60.3229 23.0028 64.2602 23.4665 68.078C22.6451 67.7916 21.8347 67.4745 21.037 67.1272C21.0925 63.3474 24.7265 60.1683 24.7265 56.9835C24.7265 53.4836 20.6025 50.6108 20.6025 47.2043C20.6025 43.7948 25.0327 41.762 25.0327 38.1047C25.0327 34.4502 22.8336 32.3766 22.8336 28.6434C22.8336 25.3185 24.0003 23.1311 26.0127 20.7162C25.5799 20.9406 25.178 21.22 24.8169 21.5474C23.7293 22.5235 22.8554 23.714 22.2501 25.0441C21.6448 26.3742 21.3212 27.8151 21.2995 29.2763C21.2995 33.2486 23.2215 35.0306 23.2215 38.128C23.2215 41.2283 18.7038 43.6694 18.7038 47.2014C18.7038 50.7304 22.6178 53.7344 22.6178 56.721C22.6178 59.3984 19.2492 62.9682 19.1355 66.2289C18.4495 65.8791 17.7754 65.5066 17.1143 65.1119C17.368 62.1457 20.55 59.7746 20.55 56.7881C20.55 55.6943 20.0367 54.7844 19.6079 54.0582C20.9145 58.1822 16.0614 60.6204 15.6239 64.1757C14.7406 63.5874 13.8842 62.9598 13.0574 62.2945C13.4394 61.6383 14.0257 60.8275 14.6906 60.3783C14.3793 60.0077 14.0797 59.6274 13.7923 59.2379C13.0107 59.7133 12.3137 60.5971 11.8674 61.2912C11.1542 60.6627 10.4663 60.0059 9.80542 59.3225C10.4179 58.5526 11.2112 57.3859 12.3662 57.071C12.0987 56.6188 11.8449 56.1587 11.6049 55.6914C10.2633 56.0472 9.34169 57.3189 8.65922 58.0742C8.04456 57.3725 7.45788 56.6466 6.90055 55.8985C7.92134 55.2277 8.7613 53.5565 10.6016 53.4865C10.7562 53.8686 10.9166 54.2507 11.0887 54.624C11.287 55.0615 11.5845 55.2306 12.1387 55.2306C13.8478 55.2306 16.4931 54.1223 18.5259 52.0924C17.2047 49.6833 16.8051 48.4584 16.8051 47.2014C16.8051 44.0107 21.3316 41.3333 21.3316 38.2359C21.3316 35.1415 19.7713 33.3711 19.7713 30.0171C19.7713 26.9926 21.1362 24.3852 22.9153 22.1832C22.4779 22.4551 22.0745 22.7782 21.7137 23.1457C19.78 25.1115 18.4938 27.9784 18.4938 30.6208C18.4938 34.1819 19.8325 35.646 19.8325 38.2884C19.8325 40.7208 14.6761 44.1011 15.2594 47.423C13.4599 49.0621 11.3133 49.7942 9.43502 49.7942C9.59794 50.4818 9.78766 51.1629 10.0037 51.8358C7.88925 51.9466 6.92388 53.749 5.80393 54.344C5.25281 53.5146 4.7371 52.6622 4.25816 51.7891C6.14224 51.5908 6.70805 49.173 9.33878 49.3567C9.20017 48.7147 9.08537 48.0677 8.99463 47.4172C5.96725 47.213 5.27895 49.7679 3.28986 49.8758C2.86571 48.9711 2.48038 48.0486 2.13491 47.111L8.75255 44.5823L8.73797 43.7657C8.73797 43.2699 8.75255 42.7799 8.7788 42.2928C5.37228 42.2141 4.33399 45.1394 1.38828 44.8506C1.11513 43.9177 0.880639 42.9739 0.685388 42.0216C4.4069 42.4795 5.76018 39.35 9.10837 39.3529C9.25805 38.4643 9.45471 37.5842 9.69751 36.7164C5.63768 36.5414 4.22024 40.0704 0.259573 39.4142C0.155513 38.5889 0.0815783 37.76 0.0379151 36.9293C4.64606 37.4426 6.36973 33.6569 10.5666 34.1207C10.9596 33.1225 11.4175 32.1512 11.9374 31.2129C6.67889 30.2883 4.89396 34.6865 0 34.0127C0.530811 15.1369 15.9973 0 35.0015 0C54.0057 0 69.4721 15.1369 70 34.0157C65.1031 34.6923 63.3211 30.2942 58.0626 31.2158C58.5788 32.1491 59.0396 33.1232 59.4334 34.1236C63.6273 33.6598 65.3539 37.4484 69.9621 36.9322ZM19.9521 22.2474C17.3739 21.1945 14.2532 21.4366 11.5874 23.1515C11.1733 20.6696 9.82876 18.4646 7.91259 17.1376C7.64718 16.9539 7.37303 17.126 7.39636 17.4351C7.80176 22.6732 4.73647 27.223 0.971209 31.2245C4.85313 32.3911 8.15758 27.3922 13.1915 29.1363C15.0017 26.4434 17.2937 24.1079 19.9521 22.2474ZM35.0015 19.0771C31.7524 19.0771 29.0284 20.9145 28.3167 23.2915C28.2584 23.4724 28.3342 23.5919 28.5442 23.4957C29.1275 23.2332 29.7954 23.1078 30.5187 23.1078C31.8428 23.1078 33.0124 23.5949 33.7036 24.4406C34.0069 25.4498 34.0332 26.911 33.689 27.7422C33.1436 27.6197 32.9453 27.1997 32.4116 27.1997C31.8808 27.1997 31.4666 27.573 30.5625 27.573C29.6583 27.573 29.5534 27.1472 28.9584 27.1472C28.2584 27.1472 28.1301 27.8676 28.1301 28.6784C28.1301 32.3007 31.4608 37.2822 35.0015 37.2822C38.5392 37.2822 41.867 32.3007 41.867 28.6784C41.867 27.8647 41.7008 27.1705 40.9716 27.0743C40.5415 27.4281 39.9935 27.6062 39.4375 27.573C38.5334 27.573 38.2855 27.1997 37.7518 27.1997C37.1101 27.1997 37.1743 28.5559 36.4101 28.6288C35.8998 27.4068 35.8764 25.8377 36.2993 24.4406C36.9905 23.5949 38.1572 23.1078 39.4842 23.1078C40.2075 23.1078 40.8754 23.2361 41.4558 23.4957C41.6658 23.5919 41.7387 23.4724 41.6862 23.2915C40.9745 20.9175 38.2505 19.0771 35.0015 19.0771ZM40.1754 24.2744C39.3967 24.2744 38.4838 24.5136 37.9093 25.1523C37.8469 25.3511 37.8551 25.5654 37.9326 25.7589C39.3471 25.2748 40.5925 25.2544 41.1962 25.9281C41.517 25.6364 41.6191 25.3739 41.6191 25.0706C41.6191 24.6011 41.1408 24.2744 40.1754 24.2744ZM28.8067 25.9281C29.4892 25.2456 30.927 25.2748 32.4174 25.826C32.4845 25.0852 31.1545 24.2715 29.8275 24.2715C28.8621 24.2715 28.3838 24.5981 28.3838 25.0706C28.3838 25.3739 28.4859 25.6393 28.8067 25.9281ZM51.2058 13.6698C48.6392 13.8536 46.4139 14.7344 44.6086 16.2014C45.3425 14.1128 46.3413 12.127 47.5805 10.2925C44.314 10.6396 41.5812 11.8353 39.5892 13.8769L38.0259 9.78501L41.4908 6.72847L36.8535 6.3989L35.0015 2.08533L33.1495 6.40182L28.5121 6.72847L31.9741 9.78793L30.4167 13.8769C28.4217 11.8353 25.6918 10.6396 22.4253 10.2925C23.6612 12.128 24.6579 14.1137 25.3914 16.2014C23.589 14.7344 21.3608 13.8536 18.7942 13.6698C20.3342 15.6502 21.6991 17.7588 22.7082 20.0279C22.8249 20.2846 23.0699 20.3692 23.3324 20.235C26.9573 18.4341 30.9509 17.4996 34.9985 17.5051C39.1925 17.5051 43.1503 18.4909 46.6676 20.235C46.933 20.3692 47.178 20.2846 47.2918 20.0308C48.3038 17.7588 49.6688 15.6502 51.2087 13.6728L51.2058 13.6698ZM56.8114 29.1392C61.8453 27.3951 65.1527 32.3912 69.0317 31.2274C65.2664 27.2259 62.2041 22.6761 62.6095 17.4351C62.6328 17.1289 62.3557 16.9539 62.0932 17.1376C60.1771 18.4676 58.8296 20.6725 58.4184 23.1515C55.7527 21.4395 52.632 21.1974 50.0537 22.2503C52.7108 24.1115 55.0017 26.4469 56.8114 29.1392Z" fill="#070807"/>
</svg>
