<svg width="61" height="72" viewBox="0 0 61 72" fill="none" xmlns="http://www.w3.org/2000/svg">
<path d="M50.5711 38.0495C50.5365 32.1478 53.2104 27.6999 58.6102 24.4202C55.5901 20.0935 51.0211 17.7137 44.9982 17.2551C39.2956 16.8051 33.0564 20.578 30.7719 20.578C28.3575 20.578 22.8366 17.4109 18.4925 17.4109C9.52751 17.5493 0 24.5587 0 38.8196C0 43.0339 0.770162 47.3866 2.31049 51.8691C4.37002 57.7708 11.7947 72.2308 19.5396 71.9972C23.5895 71.902 26.4538 69.1242 31.7238 69.1242C36.838 69.1242 39.486 71.9972 44.0031 71.9972C51.8172 71.8847 58.5323 58.74 60.488 52.821C50.0086 47.8799 50.5711 38.3524 50.5711 38.0495ZM41.4763 11.6563C45.8636 6.44686 45.4655 1.70474 45.3357 0C41.459 0.224991 36.9764 2.63932 34.4237 5.60747C31.6113 8.79197 29.9584 12.7293 30.3132 17.1686C34.5015 17.4887 38.3264 15.334 41.4763 11.6563Z" fill="#070807"/>
</svg>
