<svg width="92" height="92" viewBox="0 0 92 92" fill="none" xmlns="http://www.w3.org/2000/svg">
<g clip-path="url(#clip0_73_2)">
<path d="M45.7547 68.816C45.7547 66.3474 47.7365 64.3694 50.209 64.3694C52.6777 64.3694 54.6557 66.3474 54.6557 68.816C54.6577 69.4007 54.5441 69.98 54.3214 70.5207C54.0987 71.0613 53.7713 71.5525 53.358 71.9662C52.9447 72.3798 52.4538 72.7076 51.9133 72.9308C51.3729 73.1539 50.7937 73.2681 50.209 73.2665C49.624 73.2691 49.0442 73.1558 48.5032 72.9334C47.9621 72.7109 47.4704 72.3836 47.0564 71.9702C46.6424 71.5569 46.3142 71.0658 46.0908 70.5251C45.8674 69.9844 45.7531 69.4049 45.7547 68.8199V68.816ZM63.8633 68.8199C63.8633 66.3474 65.8452 64.3655 68.3138 64.3655C70.7825 64.3655 72.7643 66.3474 72.7643 68.816C72.7643 71.2847 70.7825 73.2665 68.3177 73.2665C67.7327 73.2691 67.1529 73.1558 66.6118 72.9334C66.0708 72.7109 65.5791 72.3836 65.165 71.9702C64.751 71.5569 64.4229 71.0658 64.1994 70.5251C63.976 69.9844 63.8618 69.4049 63.8633 68.8199V68.8199ZM21.8883 68.8199C21.8883 66.3474 23.8702 64.3655 26.3388 64.3655C28.8075 64.3655 30.7855 66.3474 30.7855 68.816C30.7855 71.2847 28.8075 73.2665 26.3388 73.2665C25.7541 73.2686 25.1748 73.1549 24.6342 72.9322C24.0936 72.7095 23.6023 72.3821 23.1887 71.9689C22.7751 71.5556 22.4473 71.0646 22.2241 70.5242C22.0009 69.9838 21.8868 69.4046 21.8883 68.8199V68.8199ZM3.77967 68.8199C3.77967 66.3474 5.7615 64.3655 8.23017 64.3655C10.6988 64.3655 12.6807 66.3474 12.6807 68.816C12.6827 69.401 12.569 69.9807 12.346 70.5216C12.1231 71.0624 11.7953 71.5539 11.3817 71.9675C10.968 72.3812 10.4766 72.7089 9.93569 72.9319C9.39482 73.1548 8.81518 73.2686 8.23017 73.2665C7.6458 73.2681 7.06689 73.1541 6.52671 72.9311C5.98653 72.7082 5.49573 72.3807 5.08252 71.9675C4.6693 71.5543 4.34182 71.0635 4.11889 70.5233C3.89596 69.9831 3.78198 69.4042 3.7835 68.8199H3.77967ZM40.3918 60.9539H36.5202V76.5287H40.3918V60.9539ZM12.65 76.5287H16.5217V60.9539H12.65V62.2035C11.3004 61.2643 9.69423 60.7637 8.05 60.7699C3.59567 60.7699 0 64.3655 0 68.8199C0 73.2972 3.59567 76.866 8.05 76.866C9.75583 76.866 11.339 76.3485 12.65 75.4324V76.5287V76.5287ZM72.7337 76.5287H76.6053V60.9539H72.7337V62.2035C71.3841 61.2643 69.7779 60.7637 68.1337 60.7699C63.6793 60.7699 60.0837 64.3655 60.0837 68.8199C60.0801 69.8778 60.2859 70.926 60.6893 71.9041C61.0926 72.8821 61.6855 73.7707 62.4338 74.5186C63.182 75.2665 64.0709 75.859 65.0492 76.2619C66.0274 76.6648 67.0757 76.8701 68.1337 76.866C69.8395 76.866 71.4227 76.3485 72.7337 75.4324V76.5287V76.5287ZM78.039 71.4687C78.1617 74.612 80.845 76.8354 85.3223 76.8354C88.9832 76.8354 92 75.2484 92 71.7447C92 69.3067 90.6277 67.873 87.4575 67.2597L84.9888 66.7767C83.4018 66.47 82.3055 66.1634 82.3055 65.2204C82.3055 64.1854 83.3712 63.7254 84.7128 63.7254C86.6678 63.7254 87.4575 64.7029 87.5188 65.8605H91.4212C91.2065 62.813 88.7685 60.7699 84.8355 60.7699C80.7837 60.7699 78.3725 62.9932 78.3725 65.8912C78.3725 69.4255 81.2398 70.0044 83.7085 70.4644L85.7517 70.8285C87.216 71.1045 87.8562 71.53 87.8562 72.3849C87.8562 73.1477 87.124 73.9067 85.3837 73.9067C82.8537 73.9067 82.0333 72.5957 82.0027 71.4687H78.039V71.4687ZM30.7587 55.6485V62.2035C29.4091 61.2643 27.8029 60.7637 26.1587 60.7699C21.7043 60.7699 18.1087 64.3655 18.1087 68.8199C18.1087 73.2972 21.7043 76.866 26.1587 76.866C27.8607 76.866 29.4477 76.3485 30.7587 75.4324V76.5287H34.6303V55.6485H30.7587V55.6485ZM54.625 55.6485V62.2035C53.2754 61.2643 51.6692 60.7637 50.025 60.7699C45.5745 60.7699 41.975 64.3655 41.975 68.8199C41.9715 69.8778 42.1773 70.926 42.5806 71.9041C42.984 72.8821 43.5768 73.7707 44.3251 74.5186C45.0734 75.2665 45.9622 75.859 46.9405 76.2619C47.9187 76.6648 48.967 76.8701 50.025 76.866C51.7308 76.866 53.314 76.3485 54.625 75.4324V76.5287H58.4967V55.6485H54.625V55.6485ZM10.0587 51.0485L12.6807 55.6485H30.7587L23.5942 43.2707L10.0625 51.0447L10.0587 51.0485ZM40.3918 59.5202V55.6485H54.625L39.445 29.371L25.8788 37.145L36.5202 55.6485V59.5202H40.3918V59.5202ZM60.3903 55.6485H78.4952L55.085 15.134L41.5495 22.9387L60.3903 55.6485V55.6485Z" fill="black"/>
</g>
<defs>
<clipPath id="clip0_73_2">
<rect width="92" height="92" fill="white"/>
</clipPath>
</defs>
</svg>
