<svg width="38" height="30" viewBox="0 0 38 30" fill="none" xmlns="http://www.w3.org/2000/svg">
<path d="M37.7821 9.81667L35.7881 2.53333C35.3703 1.03333 33.889 0 32.1608 0H5.7821C4.0729 0 2.5726 1.05 2.17379 2.53333L0.179723 9.81667C-0.276063 11.5167 0.141741 13.25 1.35717 14.6167C1.5091 14.8 1.718 14.9333 1.88892 15.1V26.6667C1.88892 28.5 3.59812 30 5.68715 30H32.2747C34.3637 30 36.0729 28.5 36.0729 26.6667V15.1C36.2438 14.95 36.4528 14.8 36.6047 14.6333C37.8201 13.2667 38.2569 11.5167 37.7821 9.81667ZM32.1038 3.31667L34.0978 10.6C34.2878 11.3 34.1168 12 33.6231 12.55C33.3572 12.85 32.7875 13.3333 31.8379 13.3333C30.6795 13.3333 29.6729 12.5167 29.54 11.4333L28.4385 3.33333L32.1038 3.31667ZM20.88 3.33333H24.6023L25.6278 10.8667C25.7228 11.5167 25.4949 12.1667 25.0011 12.65C24.5833 13.0833 23.9756 13.3333 23.197 13.3333C21.9245 13.3333 20.88 12.35 20.88 11.15V3.33333ZM12.315 10.8667L13.3596 3.33333H17.0818V11.15C17.0818 12.35 16.0373 13.3333 14.632 13.3333C13.9863 13.3333 13.3975 13.0833 12.9417 12.65C12.467 12.1667 12.2391 11.5167 12.315 10.8667ZM3.864 10.6L5.7821 3.33333H9.52335L8.42187 11.4333C8.26994 12.5167 7.2824 13.3333 6.12394 13.3333C5.19338 13.3333 4.60465 12.85 4.35777 12.55C3.84501 12.0167 3.67409 11.3 3.864 10.6ZM5.68715 26.6667V16.6167C5.83907 16.6333 5.97201 16.6667 6.12394 16.6667C7.77617 16.6667 9.27647 16.0667 10.3779 15.0833C11.5174 16.0833 13.0367 16.6667 14.7649 16.6667C16.4171 16.6667 17.8984 16.0667 18.9999 15.1167C20.1204 16.0667 21.6397 16.6667 23.3489 16.6667C24.9441 16.6667 26.4634 16.0833 27.6029 15.0833C28.7044 16.0667 30.2047 16.6667 31.8569 16.6667C32.0088 16.6667 32.1418 16.6333 32.2937 16.6167V26.6667H5.68715Z" fill="#AAB9D7"/>
</svg>
