<svg width="116" height="28" viewBox="0 0 116 28" fill="none" xmlns="http://www.w3.org/2000/svg">
<path d="M103.469 0C102.406 0 101.556 0.594202 101.556 1.31884L102.203 8.64251C102.275 9.08696 102.816 9.42512 103.469 9.42512C104.126 9.42512 104.662 9.08696 104.734 8.64251L105.386 1.31884C105.386 0.594202 104.536 0 103.469 0V0ZM0 5.87439C0 5.87439 2.88406 17.6957 3.343 19.6184C3.88406 21.8551 4.85024 22.6812 7.64251 22.1256L9.44445 14.7971C9.89855 12.9758 10.2077 11.6763 10.5024 9.82126H10.5507C10.7585 11.6957 11.0531 12.9807 11.4251 14.7971L12.5362 19.8744C12.913 21.6232 13.9614 22.7246 16.6908 22.1256L20.9903 5.87439H17.5217L16.058 12.9034C15.6618 14.9469 15.3043 16.5411 15.029 18.4106H14.9807C14.7295 16.5604 14.4106 15.029 14.0145 13.0338L12.4831 5.87439H8.8744L7.24155 12.8551C6.77778 14.9758 6.34783 16.686 6.07246 18.4928H6.02416C5.69958 16.5197 5.34528 14.5517 4.96135 12.5894C4.96135 12.5894 3.99034 7.59903 3.64734 5.87439H0ZM33.0338 5.87439V22.1256H36.3333V5.87439H33.0338ZM79.5073 5.87439V17.8647C79.5073 19.5169 79.8164 20.6715 80.4783 21.3816C81.058 22 82.0193 22.3961 83.1643 22.3961C84.1401 22.3961 85.1015 22.2126 85.5556 22.0435L85.5073 19.4686C85.0979 19.5692 84.6775 19.6179 84.256 19.6135C83.1353 19.6135 82.7585 18.8986 82.7585 17.4106V12.8261H85.6329V9.71981H82.7585V5.87439H79.5073ZM92.9275 5.87439C92.3768 5.88889 91.7488 6.30918 91.3478 7C90.8164 7.9227 90.9082 8.95652 91.5314 9.31884L98.1981 12.4203C98.6135 12.5749 99.1788 12.2754 99.5073 11.715C99.8358 11.1498 99.8116 10.5072 99.4638 10.2271L93.4445 6.00483C93.2877 5.91398 93.1086 5.8688 92.9275 5.87439V5.87439ZM114.01 5.87439C113.83 5.86944 113.653 5.91461 113.498 6.00483L107.473 10.2271C107.13 10.5072 107.106 11.1449 107.43 11.7101V11.715C107.758 12.2802 108.324 12.5749 108.739 12.4203L115.406 9.31401C116.034 8.95652 116.126 7.9227 115.599 7C115.193 6.30918 114.565 5.88889 114.01 5.87439V5.87439ZM25.6618 9.64251C23.6135 9.64251 21.9855 10.2222 21.0966 10.7295L21.744 12.9517C22.5556 12.4444 23.8502 12.0193 25.0773 12.0193C27.1015 12.0145 27.4348 13.1642 27.4348 13.9034V14.0773C23.0145 14.0725 20.2271 15.599 20.2271 18.715C20.2271 20.6184 21.6473 22.401 24.1159 22.401C25.6377 22.401 26.9082 21.7923 27.6715 20.8213H27.744C27.744 20.8213 28.2512 22.9324 31.029 22.1256C30.8832 21.1503 30.8186 20.1647 30.8358 19.1787V14.8406C30.8358 12.0773 29.6522 9.64251 25.6618 9.64251V9.64251ZM45.401 9.64251C43.3333 9.64251 42.4058 10.6908 41.8454 11.5749H41.7971V9.91787H38.6473V22.1256H41.9614V14.9662C41.9614 14.628 42 14.2754 42.1208 13.9662C42.3913 13.2464 43.0628 12.401 44.1353 12.401C45.4734 12.401 46.0966 13.5362 46.0966 15.1691V22.1256H49.4106V14.8792C49.4106 14.5604 49.4589 14.1739 49.5507 13.8889C49.6798 13.4607 49.9428 13.0851 50.301 12.8173C50.6592 12.5495 51.0938 12.4036 51.5411 12.401C52.8937 12.401 53.5507 13.5121 53.5507 15.4348V22.1256H56.8647V14.9372C56.8647 11.1449 54.9372 9.64251 52.7681 9.64251C51.8019 9.64251 51.0435 9.88406 50.3575 10.3043C49.7778 10.6618 49.2609 11.1643 48.8116 11.8261H48.7633C48.4955 11.1605 48.0289 10.5937 47.4272 10.2029C46.8255 9.81219 46.1179 9.61648 45.401 9.64251V9.64251ZM63.6135 9.64251C61.5604 9.64251 59.9372 10.2222 59.0483 10.7295L59.6957 12.9517C60.5073 12.4444 61.8019 12.0193 63.029 12.0193C65.0531 12.0145 65.3817 13.1642 65.3817 13.9034V14.0773C60.9662 14.0725 58.1788 15.599 58.1788 18.715C58.1788 20.6184 59.599 22.401 62.0676 22.401C63.5894 22.401 64.8599 21.7923 65.6184 20.8213H65.6957C65.6957 20.8213 66.1981 22.9324 68.9807 22.1256C68.8348 21.1504 68.7702 20.1647 68.7874 19.1787V14.8406C68.7874 12.0773 67.6039 9.64251 63.6135 9.64251ZM77.3865 9.64251C76.1159 9.64251 74.6715 10.4638 74.0628 12.2222H73.971V9.91787H70.9855V22.1256H74.3913V15.8744C74.3913 15.5362 74.4106 15.2464 74.4638 14.9758C74.715 13.6618 75.7198 12.8261 77.1546 12.8261C77.5507 12.8261 77.8309 12.8696 78.1353 12.913V9.71981C77.8895 9.66544 77.6382 9.6395 77.3865 9.64251ZM98.4493 15.5362C98.3632 15.5362 98.278 15.5526 98.1981 15.5845L91.5314 18.6812C90.9034 19.0435 90.8116 20.0773 91.3478 21C91.8792 21.9179 92.8213 22.3575 93.4445 22L99.4638 17.7778C99.8116 17.4879 99.8358 16.8551 99.5121 16.285C99.2464 15.8261 98.8213 15.5459 98.4493 15.5411V15.5362ZM108.493 15.5362C108.121 15.5459 107.696 15.8261 107.43 16.2899C107.106 16.8551 107.13 17.4928 107.478 17.7778L113.498 22C114.121 22.3575 115.058 21.9227 115.594 21C116.126 20.0773 116.034 19.0435 115.406 18.6812L108.739 15.5797C108.66 15.5517 108.577 15.5386 108.493 15.5411V15.5362ZM27.5411 16.2415V17.7633C27.546 17.9867 27.5183 18.2097 27.4589 18.4251C27.2999 18.887 26.9988 19.2867 26.5988 19.567C26.1988 19.8473 25.7203 19.9938 25.2319 19.9855C24.314 19.9855 23.5894 19.4686 23.5894 18.372C23.5894 16.6957 25.4396 16.2319 27.5411 16.2415V16.2415ZM65.4879 16.2415V17.7633C65.4926 17.9867 65.4649 18.2096 65.4058 18.4251C65.247 18.8862 64.9467 19.2853 64.5476 19.5655C64.1486 19.8457 63.6712 19.9927 63.1836 19.9855C62.2657 19.9855 61.5411 19.4686 61.5411 18.372C61.5411 16.6957 63.3865 16.2319 65.4879 16.2415ZM103.469 18.5749C102.816 18.5749 102.275 18.913 102.203 19.3575L101.556 26.6812C101.556 27.4058 102.406 28 103.469 28C104.536 28 105.386 27.4058 105.386 26.6812L104.734 19.3575C104.662 18.913 104.126 18.5749 103.469 18.5749V18.5749Z" fill="#070807"/>
</svg>
